<svg width="534" height="225" viewBox="0 0 534 225" fill="none" xmlns="http://www.w3.org/2000/svg">
    <path
        d="M435.738 35.3747L411.486 23.5459M435.738 35.3747L488.625 70.347L511.205 90.256M435.738 35.3747L368.649 16.488M435.738 35.3747L451.359 49.262M411.486 23.5459L380.338 14.4663L341.171 6.06992M411.486 23.5459L356.724 10.6122M341.171 6.06992L323.031 3.13908M341.171 6.06992L356.724 10.6122M341.171 6.06992L301.198 23.6538M323.031 3.13908L303.488 2M323.031 3.13908L301.198 23.6538M303.488 2L283.797 2.72128M303.488 2L301.198 23.6538M283.797 2.72128L265.224 5.25974M283.797 2.72128L301.198 23.6538M265.224 5.25974L230.033 12.8549L197.574 21.236M265.224 5.25974L248.976 9.45921M265.224 5.25974L301.198 23.6538M197.574 21.236L171.563 32.4985M197.574 21.236L248.976 9.45921M171.563 32.4985L120.772 66.244L95.291 85.5524M171.563 32.4985L153.818 45.9909M171.563 32.4985L236.131 15.0644M95.291 85.5524L52.2564 138.346L36.684 165.366M95.291 85.5524L83.0914 107.046M95.291 85.5524L153.818 45.9909M36.684 165.366L9.16713 231.966M36.684 165.366L83.0914 107.046M36.684 165.366L38.8631 193.603M9.16713 231.966L2 302.204L3.74227 337.097M9.16713 231.966L11.0135 264.565M3.74227 337.097L17.039 406.008M3.74227 337.097L11.0135 264.565M3.74227 337.097L26.6291 371.244M17.039 406.008L49.2836 466.686L69.3844 497.726M17.039 406.008L39.1412 439.926M69.3844 497.726L114.47 541.219L144.996 564.074M69.3844 497.726L106.708 525.523M69.3844 497.726L39.1412 439.926M144.996 564.074L192.674 584.632L222.35 597.378M144.996 564.074L106.708 525.523M144.996 564.074L187.358 582.266M222.35 597.378L257.941 605.733M222.35 597.378L187.358 582.266M257.941 605.733L296.821 609.01M257.941 605.733L238.582 594.249M296.821 609.01L294.772 598.96M296.821 609.01L336.047 606.932M336.047 606.932L372.641 599.677M336.047 606.932L351.486 595.973M372.641 599.677L403.885 587.842L448.923 568.647M372.641 599.677L404.223 585.559M448.923 568.647L482.377 546.689L526.163 504.366M448.923 568.647L485.126 531.104M448.923 568.647L404.223 585.559M526.163 504.366L526.52 503.67L555.549 447.201M526.163 504.366L550.334 473.848L582.281 413.822M526.163 504.366L485.126 531.104M582.281 413.822L595.436 344.958M582.281 413.822L555.549 447.201M595.436 344.958L602 310.011L594.717 239.263M595.436 344.958L588.166 271.905M595.436 344.958L567.684 378.576M594.717 239.263L566.912 171.697M594.717 239.263L588.166 271.905M566.912 171.697L555.298 144.245L511.205 90.256M566.912 171.697L520.111 112.062M566.912 171.697L560.479 199.945M511.205 90.256L451.359 49.262M511.205 90.256L520.111 112.062M356.724 10.6122L301.198 23.6538M356.724 10.6122L368.649 16.488M301.198 23.6538L368.649 16.488M301.198 23.6538L376.109 23.3224M301.198 23.6538L378.537 30.6711M301.198 23.6538L375.691 38.0415M301.198 23.6538L367.683 44.9203M301.198 23.6538L355.004 50.8202M301.198 23.6538L338.497 55.3054M301.198 23.6538L319.311 58.0432M301.198 23.6538L298.818 58.8254M301.198 23.6538L278.498 57.5911M301.198 23.6538L259.815 54.4368M301.198 23.6538L244.098 49.5986M301.198 23.6538L232.432 43.4384M301.198 23.6538L225.585 36.4034M301.198 23.6538L223.958 28.9936M301.198 23.6538L227.581 21.7185M301.198 23.6538L236.131 15.0644M301.198 23.6538L248.976 9.45921M368.649 16.488L376.109 23.3224M376.109 23.3224L378.537 30.6711M376.109 23.3224L451.359 49.262M451.359 49.262L457.058 64.3494M378.537 30.6711L375.691 38.0415M378.537 30.6711L457.058 64.3494M457.058 64.3494L520.111 112.062M457.058 64.3494L452.134 79.6424M520.111 112.062L514.12 134.357M514.12 134.357L452.134 79.6424M514.12 134.357L492.988 155.568M514.12 134.357L560.479 199.945M560.479 199.945L535.473 226.989M560.479 199.945L588.166 271.905M375.691 38.0415L367.683 44.9203M375.691 38.0415L452.134 79.6424M452.134 79.6424L436.594 94.0694M588.166 271.905L560.972 303.274M567.684 378.576L560.972 303.274M567.684 378.576L519.637 408.2M567.684 378.576L555.549 447.201M436.594 94.0694L367.683 44.9203M436.594 94.0694L411.253 106.556M436.594 94.0694L492.988 155.568M492.988 155.568L535.473 226.989M492.988 155.568L457.654 174.069M367.683 44.9203L355.004 50.8202M535.473 226.989L492.832 250.717M535.473 226.989L560.972 303.274M560.972 303.274L514.04 330.891M555.549 447.201L509.534 476.566M485.126 531.104L509.534 476.566M485.126 531.104L429.729 551.803M492.832 250.717L457.654 174.069M492.832 250.717L435.144 269.103M492.832 250.717L514.04 330.891M355.004 50.8202L338.497 55.3054M355.004 50.8202L411.253 106.556M514.04 330.891L450.161 352.355M514.04 330.891L519.637 408.2M411.253 106.556L457.654 174.069M411.253 106.556L377.746 116.125M457.654 174.069L410.323 188.337M519.637 408.2L509.534 476.566M519.637 408.2L454.137 431.239M509.534 476.566L446.986 499.373M410.323 188.337L377.746 116.125M410.323 188.337L354.403 197.131M410.323 188.337L435.144 269.103M446.986 499.373L454.137 431.239M446.986 499.373L372.459 513.499M446.986 499.373L429.729 551.803M435.144 269.103L450.161 352.355M435.144 269.103L366.596 280.472M338.497 55.3054L377.746 116.125M338.497 55.3054L319.311 58.0432M377.746 116.125L338.452 121.996M429.729 551.803L404.223 585.559M429.729 551.803L363.988 564.593M404.223 585.559L351.486 595.973M450.161 352.355L373.996 365.655M450.161 352.355L454.137 431.239M454.137 431.239L375.968 445.524M373.996 365.655L366.596 280.472M373.996 365.655L291.697 369.481M373.996 365.655L375.968 445.524M338.452 121.996L319.311 58.0432M338.452 121.996L296.312 123.678M338.452 121.996L354.403 197.131M351.486 595.973L363.988 564.593M351.486 595.973L294.772 598.96M375.968 445.524L291.467 449.636M375.968 445.524L372.459 513.499M354.403 197.131L366.596 280.472M354.403 197.131L294.229 199.654M366.596 280.472L292.645 283.741M319.311 58.0432L298.818 58.8254M372.459 513.499L363.988 564.593M372.459 513.499L291.96 517.562M363.988 564.593L293.103 568.268M292.645 283.741L294.229 199.654M292.645 283.741L219.407 278.588M292.645 283.741L291.697 369.481M298.818 58.8254L278.498 57.5911M298.818 58.8254L296.312 123.678M293.103 568.268L291.96 517.562M293.103 568.268L222.897 562.474M293.103 568.268L294.772 598.96M291.697 369.481L291.467 449.636M291.697 369.481L210.208 363.448M296.312 123.678L294.229 199.654M296.312 123.678L254.546 121.025M294.229 199.654L234.615 195.674M294.772 598.96L238.582 594.249M291.467 449.636L207.803 443.154M291.467 449.636L291.96 517.562M291.96 517.562L212.247 511.156M207.803 443.154L210.208 363.448M207.803 443.154L132.031 426.739M207.803 443.154L212.247 511.156M234.615 195.674L254.546 121.025M234.615 195.674L180.315 185.559M234.615 195.674L219.407 278.588M212.247 511.156L139.987 494.919M212.247 511.156L222.897 562.474M219.407 278.588L210.208 363.448M219.407 278.588L152.913 265.516M210.208 363.448L136.368 348.163M278.498 57.5911L254.546 121.025M278.498 57.5911L259.815 54.4368M254.546 121.025L216.34 114.265M222.897 562.474L238.582 594.249M222.897 562.474L159.107 547.766M238.582 594.249L187.358 582.266M136.368 348.163L152.913 265.516M136.368 348.163L76.0385 325.117M136.368 348.163L132.031 426.739M216.34 114.265L259.815 54.4368M216.34 114.265L184.527 103.962M216.34 114.265L180.315 185.559M187.358 582.266L159.107 547.766M132.031 426.739L139.987 494.919M132.031 426.739L70.1857 402.003M180.315 185.559L152.913 265.516M180.315 185.559L135.484 170.213M152.913 265.516L98.3692 245.762M259.815 54.4368L244.098 49.5986M139.987 494.919L80.8958 470.427M139.987 494.919L159.107 547.766M159.107 547.766L106.708 525.523M80.8958 470.427L70.1857 402.003M80.8958 470.427L39.1412 439.926M80.8958 470.427L106.708 525.523M98.3692 245.762L135.484 170.213M98.3692 245.762L59.6191 221.102M98.3692 245.762L76.0385 325.117M244.098 49.5986L232.432 43.4384M244.098 49.5986L184.527 103.962M76.0385 325.117L70.1857 402.003M76.0385 325.117L33.4699 296.436M70.1857 402.003L26.6291 371.244M184.527 103.962L135.484 170.213M184.527 103.962L161.328 90.9468M135.484 170.213L103.27 150.962M26.6291 371.244L33.4699 296.436M26.6291 371.244L39.1412 439.926M103.27 150.962L161.328 90.9468M103.27 150.962L85.5893 129.364M103.27 150.962L59.6191 221.102M59.6191 221.102L33.4699 296.436M59.6191 221.102L38.8631 193.603M33.4699 296.436L11.0135 264.565M232.432 43.4384L225.585 36.4034M232.432 43.4384L161.328 90.9468M161.328 90.9468L148.193 76.229M11.0135 264.565L38.8631 193.603M148.193 76.229L225.585 36.4034M148.193 76.229L145.744 60.8903M148.193 76.229L85.5893 129.364M85.5893 129.364L38.8631 193.603M85.5893 129.364L83.0914 107.046M225.585 36.4034L223.958 28.9936M83.0914 107.046L145.744 60.8903M223.958 28.9936L227.581 21.7185M223.958 28.9936L145.744 60.8903M145.744 60.8903L153.818 45.9909M153.818 45.9909L227.581 21.7185M227.581 21.7185L236.131 15.0644M236.131 15.0644L248.976 9.45921"
        stroke="#E3ECEF" stroke-width="3" stroke-linecap="round" stroke-linejoin="round" />
</svg>