<svg width="29" height="28" viewBox="0 0 29 28" fill="none" xmlns="http://www.w3.org/2000/svg">
<path fill-rule="evenodd" clip-rule="evenodd" d="M0 12.5317C4.28382 12.5317 6.47981 9.18599 6.47981 5.32068H12.4C16.5498 5.32068 19.6299 7.17105 20.9254 10.3357C21.9998 12.1978 23.6198 12.5293 28.094 12.5293C27.4075 4.88807 21.3392 0 12.7198 0H0V12.5317Z" fill="#806BFF"/>
<path fill-rule="evenodd" clip-rule="evenodd" d="M16.0537 20.9535C22.7475 15.8962 13.3616 11.7017 14.2833 6.69373C12.8467 8.01743 11.61 9.12483 11.1821 10.6931C10.5896 12.8538 11.6641 13.8295 11.1445 14.3985C10.8694 14.6994 9.87956 13.6038 9.74554 13.1735C7.57071 15.828 7.86696 18.4542 11.295 21.3062C10.7307 20.5632 9.75494 19.0162 10.1829 18.2262C10.552 17.5396 11.744 18.4002 12.5387 17.582C12.7574 17.3562 12.889 17.0341 12.9384 16.6156C13.0842 15.3366 12.2401 14.5019 13.1947 12.4964C14.1728 14.1963 18.1274 19.0561 16.0537 20.9582V20.9535Z" fill="white"/>
<path fill-rule="evenodd" clip-rule="evenodd" d="M0 15.4683C4.28382 15.4683 6.47981 18.814 6.47981 22.6793H12.4C16.5498 22.6793 19.6299 20.8289 20.9254 17.6642C21.9998 15.8021 23.6198 15.4706 28.094 15.4706C27.4075 23.1142 21.3392 28.0023 12.7198 28.0023H0V15.4706V15.4683Z" fill="#806BFF"/>
</svg>
