<svg width="20" height="20" viewBox="0 0 20 20" fill="none" xmlns="http://www.w3.org/2000/svg">
    <path
        d="M7.73004 3.32601C9.09298 2.37196 10.907 2.37196 12.27 3.32601L16.4366 6.24268C17.4948 6.9834 18.125 8.19381 18.125 9.48547V14.1666C18.125 16.3528 16.3528 18.125 14.1667 18.125H12.5C12.1548 18.125 11.875 17.8451 11.875 17.5V14.1666C11.875 13.5913 11.4086 13.1249 10.8333 13.1249H9.16667C8.59137 13.1249 8.125 13.5913 8.125 14.1666V17.5C8.125 17.8451 7.84518 18.125 7.5 18.125H5.83333C3.64721 18.125 1.875 16.3527 1.875 14.1666V9.48547C1.875 8.19381 2.50521 6.9834 3.56338 6.24268L7.73004 3.32601Z"
        fill="#363640" />
</svg>