<svg width="29" height="28" viewBox="0 0 29 28" fill="none" xmlns="http://www.w3.org/2000/svg">
<path fill-rule="evenodd" clip-rule="evenodd" d="M0 12.5317C4.28382 12.5317 6.47981 9.18599 6.47981 5.32068H12.4C16.5498 5.32068 19.6299 7.17105 20.9254 10.3357C21.9998 12.1978 23.6198 12.5293 28.094 12.5293C27.4075 4.88807 21.3392 0 12.7198 0H0V12.5317Z" fill="#806BFF"/>
<path fill-rule="evenodd" clip-rule="evenodd" d="M16.0536 20.9535C22.7474 15.8962 13.3616 11.7017 14.2832 6.69373C12.8467 8.01743 11.61 9.12483 11.182 10.6931C10.5895 12.8538 11.664 13.8295 11.1444 14.3985C10.8693 14.6994 9.8795 13.6038 9.74548 13.1735C7.57065 15.828 7.8669 18.4542 11.2949 21.3062C10.7306 20.5632 9.75488 19.0162 10.1828 18.2262C10.5519 17.5396 11.744 18.4002 12.5387 17.582C12.7573 17.3562 12.889 17.0341 12.9384 16.6156C13.0841 15.3366 12.2401 14.5019 13.1946 12.4964C14.1727 14.1963 18.1274 19.0561 16.0536 20.9582V20.9535Z" fill="white"/>
<path fill-rule="evenodd" clip-rule="evenodd" d="M6.10352e-05 15.4683C4.28388 15.4683 6.47987 18.814 6.47987 22.6793H12.4001C16.5499 22.6793 19.6299 20.8289 20.9254 17.6642C21.9999 15.8021 23.6198 15.4706 28.0941 15.4706C27.4076 23.1142 21.3392 28.0023 12.7199 28.0023H6.10352e-05V15.4706V15.4683Z" fill="#806BFF"/>
</svg>
